<svg width="16" height="15" viewBox="0 0 16 15" fill="none" xmlns="http://www.w3.org/2000/svg">
<g clip-path="url(#clip0_1_754)">
<path d="M5.9096 5.5853H4.2373V7.25759H5.9096C6.37057 7.25759 6.74575 6.88242 6.74575 6.42144C6.74575 5.96047 6.37057 5.5853 5.9096 5.5853Z" fill="black"/>
<path d="M5.9096 8.09375H4.2373V9.76605H5.9096C6.37057 9.76605 6.74575 9.39087 6.74575 8.9299C6.74575 8.46893 6.37057 8.09375 5.9096 8.09375Z" fill="black"/>
<path d="M10.5085 7.2576C9.96347 7.2576 9.49847 7.60708 9.32568 8.09375H11.6913C11.5185 7.60708 11.0535 7.2576 10.5085 7.2576Z" fill="black"/>
<path d="M13.0169 0.540527H2.95524C1.8027 0.540527 0.864868 1.47836 0.864868 2.6309V12.7204C0.864868 13.873 1.8027 14.8108 2.95524 14.8108H13.0169C14.1694 14.8108 15.1351 13.873 15.1351 12.7204V2.6309C15.1351 1.47836 14.1694 0.540527 13.0169 0.540527ZM8.83615 4.74914H12.1807V5.58529H8.83615V4.74914ZM7.58193 8.92989C7.58193 9.85215 6.8319 10.6022 5.90963 10.6022H3.40119V4.74914H5.90963C6.8319 4.74914 7.58193 5.49917 7.58193 6.42144C7.58193 6.92335 7.35525 7.36897 7.00414 7.67566C7.35525 7.98236 7.58193 8.42798 7.58193 8.92989ZM12.5988 8.92989H9.32565C9.49832 9.41655 9.96343 9.76603 10.5084 9.76603C10.9547 9.76603 11.3712 9.52553 11.5952 9.13849L12.3187 9.55743C11.946 10.2016 11.2523 10.6022 10.5084 10.6022C9.35591 10.6022 8.41808 9.66435 8.41808 8.51181C8.41808 7.35928 9.35591 6.42144 10.5084 6.42144C11.661 6.42144 12.5988 7.35928 12.5988 8.51181V8.92989Z" fill="black"/>
</g>
<defs>
<clipPath id="clip0_1_754">
<rect width="14.2703" height="14.2703" fill="white" transform="translate(0.864868 0.540527)"/>
</clipPath>
</defs>
</svg>
