<svg width="16" height="15" viewBox="0 0 16 15" fill="none" xmlns="http://www.w3.org/2000/svg">
<g clip-path="url(#clip0_1_747)">
<path d="M11.8024 3.47528C12.239 2.98873 12.4935 2.47931 12.5828 1.95639C11.3483 0.922634 9.76025 0.270264 8.02785 0.270264C7.13335 0.270264 6.28033 0.443373 5.49121 0.746259C6.81261 2.07016 7.91768 3.63772 8.78202 5.32983C10.0556 4.8693 11.1171 4.23925 11.8024 3.47528Z" fill="black"/>
<path d="M12.4246 4.03381C11.6576 4.88868 10.5175 5.58395 9.1554 6.08923C9.32469 6.46049 9.48027 6.83948 9.62671 7.22337C10.3262 7.0729 11.0512 6.98733 11.7906 6.98733C12.9545 6.98733 14.0853 7.18482 15.128 7.54781C15.129 7.50001 15.1352 7.45352 15.1352 7.4054C15.1352 5.5649 14.426 3.89097 13.2741 2.62738C13.1041 3.11709 12.822 3.59102 12.4246 4.03381Z" fill="black"/>
<path d="M1.02783 5.9035C1.91657 6.0606 2.90122 6.15119 3.84711 6.15119C5.31342 6.15119 6.72192 5.94302 7.97723 5.58548C7.11223 3.92353 6.0002 2.39396 4.67292 1.11481C2.8666 2.08629 1.47291 3.84416 1.02783 5.9035Z" fill="black"/>
<path d="M15.0559 8.40868C14.0473 8.02904 12.9372 7.82349 11.7906 7.82349C11.1478 7.82349 10.5165 7.89088 9.90771 8.01391C10.5258 9.86748 10.8834 11.871 10.9445 13.9075C13.1189 12.9238 14.7084 10.8518 15.0559 8.40868Z" fill="black"/>
<path d="M0.864868 7.40543C0.864868 9.60424 1.92475 11.6004 3.49797 12.9051C3.66466 11.7962 4.16461 10.7053 4.97887 9.79226C5.94741 8.70636 7.29145 7.89318 8.81351 7.42905C8.67186 7.06367 8.51715 6.70548 8.35384 6.35229C6.99379 6.75567 5.46194 6.98735 3.84713 6.98735C2.85921 6.98735 1.83112 6.89296 0.899163 6.72922C0.878042 6.95208 0.864868 7.17723 0.864868 7.40543V7.40543Z" fill="black"/>
<path d="M5.60315 10.3487C4.78061 11.271 4.33499 12.3528 4.27783 13.4595C5.36798 14.1403 6.65062 14.5405 8.02787 14.5405C8.75199 14.5405 9.45063 14.4303 10.1094 14.2282C10.0774 12.1465 9.72793 10.0997 9.09255 8.21573C7.70169 8.63282 6.47827 9.36739 5.60315 10.3487Z" fill="black"/>
</g>
<defs>
<clipPath id="clip0_1_747">
<rect width="14.2703" height="14.2703" fill="white" transform="translate(0.864868 0.270264)"/>
</clipPath>
</defs>
</svg>
