<svg width="16" height="15" viewBox="0 0 16 15" fill="none" xmlns="http://www.w3.org/2000/svg">
<g clip-path="url(#clip0_1_761)">
<path d="M13.0448 0.0810852H2.95524C1.8027 0.0810852 0.864868 1.01892 0.864868 2.17146V12.261C0.864868 13.4135 1.8027 14.3514 2.95524 14.3514H13.0448C14.1973 14.3514 15.1351 13.4135 15.1351 12.261V2.17146C15.1351 1.01892 14.1973 0.0810852 13.0448 0.0810852ZM5.90963 11.397H4.23733V5.54392H5.90963V11.397ZM5.90963 4.70777H4.23733V3.03548H5.90963V4.70777ZM11.7627 11.397H10.0904V8.05237C10.0904 7.5914 9.7152 7.21622 9.25423 7.21622C8.79326 7.21622 8.41808 7.5914 8.41808 8.05237V11.397H6.74578V5.54392H8.41808V5.85911C8.85618 5.72291 9.14078 5.54392 9.6723 5.54392C10.8064 5.54512 11.7627 6.56254 11.7627 7.76494V11.397Z" fill="black"/>
</g>
<defs>
<clipPath id="clip0_1_761">
<rect width="14.2703" height="14.2703" fill="white" transform="translate(0.864868 0.0810852)"/>
</clipPath>
</defs>
</svg>
