<svg width="16" height="15" viewBox="0 0 16 15" fill="none" xmlns="http://www.w3.org/2000/svg">
<g clip-path="url(#clip0_1_745)">
<path d="M6.18865 12.9894C5.57156 12.9894 4.9364 12.9394 4.29742 12.8393C3.172 12.6627 2.03275 12.074 1.71038 11.8977L0.864868 11.4354L1.78027 11.1344C2.78093 10.8054 3.38964 10.6012 4.14315 10.2816C3.38866 9.91621 2.80716 9.25895 2.52725 8.4093L2.3143 7.76281L2.48893 7.78948C2.32333 7.62258 2.19258 7.45317 2.09121 7.29911C1.73074 6.75159 1.53988 6.08256 1.58049 5.50923L1.62056 4.94494L1.95839 5.07581C1.81587 4.80667 1.71288 4.51925 1.65235 4.21799C1.50482 3.48331 1.62829 2.7028 2.00009 2.02027L2.29437 1.48004L2.68795 1.95277C3.93269 3.44804 5.50929 4.33503 7.38049 4.5947C7.30406 4.06786 7.36133 3.55942 7.55087 3.10367C7.77156 2.57302 8.16416 2.12305 8.68588 1.80231C9.2653 1.44618 9.96797 1.27362 10.6644 1.3164C11.4033 1.36181 12.0742 1.63867 12.6071 2.11761C12.8673 2.04999 13.059 1.97781 13.3181 1.88026C13.474 1.82158 13.6508 1.75495 13.872 1.67874L14.6873 1.39784L14.1557 2.91619C14.1907 2.91325 14.2269 2.91075 14.2646 2.90912L15.1352 2.8697L14.6207 3.57292C14.5912 3.6132 14.5836 3.62463 14.5732 3.64042C14.5317 3.70291 14.4801 3.78065 13.7738 4.72371C13.597 4.95986 13.5087 5.26742 13.5252 5.58991C13.5878 6.81539 13.4374 7.92416 13.078 8.88529C12.7381 9.7946 12.2114 10.5748 11.5127 11.2042C10.648 11.9829 9.54543 12.516 8.23547 12.7886C7.5929 12.9223 6.90286 12.9894 6.18865 12.9894Z" fill="black"/>
</g>
<defs>
<clipPath id="clip0_1_745">
<rect width="14.2703" height="14.2703" fill="white" transform="translate(0.864868)"/>
</clipPath>
</defs>
</svg>
