<svg width="16" height="16" viewBox="0 0 16 16" fill="none" xmlns="http://www.w3.org/2000/svg">
<g clip-path="url(#clip0_1_759)">
<path d="M0.864868 4.96166L1.05888 5.68382L1.07358 5.674C1.46923 5.41132 1.78213 5.20384 2.13368 5.20384C2.44778 5.20384 2.74838 5.37292 2.97223 5.70596C4.1902 7.51669 5.13217 13.8134 7.41133 13.8134C9.66077 13.8134 15.3101 6.94813 15.131 3.85029C15.042 2.31141 13.9418 2.08145 13.2937 2.08145C12.0458 2.08145 10.8019 2.85357 10.1741 4.33027C11.2455 4.15813 12.0048 4.75985 11.9232 5.86185C11.8289 7.11351 9.73328 10.3477 8.7581 10.3477C7.09103 10.3477 6.31105 4.71578 5.7533 3.00618C5.61361 2.57943 5.20969 2.31424 4.69842 2.31424C4.33543 2.31424 3.95971 2.45376 3.63995 2.7075C2.9032 3.29177 2.15208 3.89283 1.42306 4.49892L0.864868 4.96166Z" fill="black"/>
</g>
<defs>
<clipPath id="clip0_1_759">
<rect width="14.2703" height="14.2703" fill="white" transform="translate(0.864868 0.810822)"/>
</clipPath>
</defs>
</svg>
